<svg id="Capa_1" enable-background="new 0 0 512 512" height="512" viewBox="0 0 512 512" width="512" xmlns="http://www.w3.org/2000/svg"><g><g><path d="m394.565 120c-9.734-67.755-68.159-120-138.565-120s-128.831 52.245-138.565 120h-81.435v332c0 33.084 26.916 60 60 60h320c33.084 0 60-26.916 60-60v-332zm-138.565-80c48.293 0 88.698 34.411 97.989 80h-195.978c9.291-45.589 49.696-80 97.989-80zm180 412c0 11.028-8.972 20-20 20h-320c-11.028 0-20-8.972-20-20v-292h360zm-180-52c75.543 0 140-69.439 140-160v-20h-40v20c0 66.168-44.859 120-100 120s-100-53.832-100-120v-20h-40v20c0 90.905 64.735 160 140 160z"/></g></g></svg>