<?xml version="1.0" encoding="iso-8859-1"?>
<!-- Generator: Adobe Illustrator 19.0.0, SVG Export Plug-In . SVG Version: 6.00 Build 0)  -->
<svg version="1.1" id="Capa_1" xmlns="http://www.w3.org/2000/svg" xmlns:xlink="http://www.w3.org/1999/xlink" x="0px" y="0px"
	 viewBox="0 0 512 512" style="enable-background:new 0 0 512 512;" xml:space="preserve">
<g>
	<g>
		<g>
			<circle cx="299" cy="297" r="20"/>
			<circle cx="299" cy="210" r="20"/>
			<circle cx="212" cy="297" r="20"/>
			<circle cx="212" cy="210" r="20"/>
			<circle cx="212" cy="384" r="20"/>
			<circle cx="386" cy="210" r="20"/>
			<circle cx="125" cy="210" r="20"/>
			<path d="M422,294c-49.626,0-90,40.374-90,90c0,16.807,4.636,32.55,12.689,46.026l-47.832,47.832c-7.81,7.81-7.81,20.473,0,28.284
				C300.763,510.047,305.882,512,311,512c5.118,0,10.237-1.953,14.142-5.858l47.152-47.152C386.547,468.468,403.638,474,422,474
				c49.626,0,90-40.374,90-90C512,334.374,471.626,294,422,294z M422,434c-27.57,0-50-22.43-50-50s22.43-50,50-50s50,22.43,50,50
				S449.57,434,422,434z"/>
			<circle cx="125" cy="384" r="20"/>
			<path d="M432,40h-26V20c0-11.046-8.954-20-20-20c-11.046,0-20,8.954-20,20v20h-91V20c0-11.046-8.954-20-20-20
				c-11.046,0-20,8.954-20,20v20h-90V20c0-11.046-8.954-20-20-20s-20,8.954-20,20v20H80C35.888,40,0,75.888,0,120v312
				c0,44.112,35.888,80,80,80h131c11.046,0,20-8.954,20-20c0-11.046-8.954-20-20-20H80c-22.056,0-40-17.944-40-40V120
				c0-22.056,17.944-40,40-40h25v20c0,11.046,8.954,20,20,20s20-8.954,20-20V80h90v20c0,11.046,8.954,20,20,20s20-8.954,20-20V80h91
				v20c0,11.046,8.954,20,20,20c11.046,0,20-8.954,20-20V80h26c22.056,0,40,17.944,40,40v120c0,11.046,8.954,20,20,20
				c11.046,0,20-8.954,20-20V120C512,75.888,476.112,40,432,40z"/>
			<circle cx="125" cy="297" r="20"/>
		</g>
	</g>
</g>
<g>
</g>
<g>
</g>
<g>
</g>
<g>
</g>
<g>
</g>
<g>
</g>
<g>
</g>
<g>
</g>
<g>
</g>
<g>
</g>
<g>
</g>
<g>
</g>
<g>
</g>
<g>
</g>
<g>
</g>
</svg>
