<svg id="Layer_1" enable-background="new 0 0 256 256" height="512" viewBox="0 0 256 256" width="512" xmlns="http://www.w3.org/2000/svg"><g><g><path d="m203.626 143.503h-42.308v104.687h32.308c5.523 0 10-4.477 10-10z" fill="#8c3f0a"/></g><g><path d="m187.472 143.503h-26.154v104.687h16.154c5.523 0 10-4.477 10-10z" fill="#995222"/></g><g><path d="m52.374 143.503h118.944v94.687c0 5.523-4.477 10-10 10h-98.944c-5.523 0-10-4.477-10-10z" fill="#fcc4ae"/></g><g><path d="m58.374 200.847c-1.104 0-2-.896-2-2v-41c0-1.104.896-2 2-2s2 .896 2 2v41c0 1.104-.895 2-2 2zm0-49c-1.104 0-2-.896-2-2v-.344c0-1.104.896-2 2-2s2 .896 2 2v.344c0 1.104-.895 2-2 2z" fill="#ffd2c0"/></g><g><path d="m187.472 23.956-16.154 119.547h32.308z" fill="#8c3f0a"/></g><g><path d="m187.472 23.956-16.154 119.547h16.154z" fill="#995222"/></g><g><path d="m52.374 143.503h118.944l16.154-119.547h-118.944z" fill="#ffd2c0"/></g><g><g><circle cx="119" cy="84.904" fill="#7c3108" r="33.5"/></g><g><g><path d="m117.387 88.916c-1.334-7.772-2.81-16.448-.089-25-7.482 1.19-13.298 10.116-13.298 20.956 0 11.077 6.073 20.153 13.791 21.02 1.727-4.515.732-10.362-.404-16.976z" fill="#f79219"/></g><g><path d="m121.001 63.97c-2.94 8.008-1.53 16.292-.151 24.327 1.072 6.246 2.092 12.228.72 17.353 7.059-1.715 12.43-10.362 12.43-20.779 0-10.694-5.661-19.524-12.999-20.901z" fill="#f79219"/></g><g><path d="m121.001 63.97c-.226.615-.418 1.233-.594 1.851 5.076 3.38 8.594 10.628 8.594 19.05 0 7.455-2.759 13.988-6.911 17.738-.104 1.039-.256 2.06-.519 3.041 7.059-1.715 12.43-10.362 12.43-20.779-.001-10.694-5.662-19.524-13-20.901z" fill="#ef7816"/></g></g></g><g><path d="m176.121 23.956-14.803 109.547v94.687c0 5.523-4.477 10-10 10h-98.944c0 5.523 4.477 10 10 10h98.944c5.523 0 10-4.477 10-10v-94.687l16.154-119.547z" fill="#f2ad97"/></g><g><path d="m181.796 23.956-15.478 114.547v94.687c0 5.523-4.477 10-10 10h-98.944c-1.466 0-2.855-.323-4.109-.89 1.568 3.471 5.053 5.89 9.109 5.89h98.944c5.523 0 10-4.477 10-10v-94.687l16.154-119.547z" fill="#e59076"/></g><g><path d="m73.528 7.81h108.944c2.761 0 5 2.239 5 5v11.146h-118.944v-11.146c0-2.762 2.239-5 5-5z" fill="#995222"/></g><g><path d="m182.472 7.81v6.146c0 2.761-2.239 5-5 5h-108.944v5h118.944v-11.146c0-2.762-2.239-5-5-5z" fill="#8c3f0a"/></g></g></svg>