<svg id="Capa_1" enable-background="new 0 0 511.999 511.999" height="512" viewBox="0 0 511.999 511.999" width="512" xmlns="http://www.w3.org/2000/svg"><g><path d="m268.153 243.847c7.81 7.81 20.473 7.811 28.284 0l84.853-84.853c7.811-7.81 7.811-20.474 0-28.284s-20.474-7.811-28.284 0l-84.853 84.853c-7.811 7.81-7.811 20.473 0 28.284z"/><path d="m41.879 158.994c-23.394 23.394-23.394 61.459 0 84.852 7.445 7.446 16.735 12.815 26.864 15.527l133.915 35.869c6.853 1.835 12.265 7.247 14.1 14.102l35.868 133.909c2.712 10.131 8.082 19.422 15.527 26.867 23.447 23.447 61.401 23.453 84.852.001 5.987-5.986 10.555-13.007 13.576-20.864l141.421-367.696c8.509-22.118 3.18-47.234-13.575-63.989-16.755-16.755-41.873-22.084-63.989-13.575l-367.696 141.421c-7.858 3.023-14.878 7.59-20.863 13.576zm28.284 28.284c2.002-2.002 4.337-3.525 6.938-4.525l367.698-141.422c7.483-2.879 15.836-.982 21.344 4.526 5.588 5.588 7.364 13.966 4.526 21.344v.001l-141.423 367.698c-1 2.6-2.522 4.933-4.525 6.936-7.815 7.816-20.465 7.817-28.284 0-2.521-2.521-4.261-5.523-5.172-8.929l-35.869-133.911c-5.522-20.626-21.735-36.861-42.391-42.392l-133.915-35.869c-3.403-.911-6.406-2.651-8.927-5.173-7.798-7.798-7.798-20.486 0-28.284z"/><path d="m5.858 506.141c7.81 7.81 20.473 7.811 28.284 0l84.853-84.853c7.811-7.811 7.811-20.474 0-28.284s-20.474-7.811-28.284 0l-84.853 84.853c-7.81 7.81-7.81 20.473 0 28.284z"/><path d="m147.279 506.141 56.568-56.568c7.811-7.811 7.811-20.474 0-28.284s-20.474-7.811-28.284 0l-56.568 56.568c-7.811 7.811-7.811 20.474 0 28.284s20.474 7.811 28.284 0z"/><path d="m5.858 393.004c7.81 7.81 20.473 7.811 28.284 0l56.568-56.568c7.811-7.811 7.811-20.474 0-28.284s-20.474-7.811-28.284 0l-56.568 56.568c-7.81 7.81-7.81 20.473 0 28.284z"/></g></svg>