<svg width="144" height="149" viewBox="0 0 144 149" fill="none" xmlns="http://www.w3.org/2000/svg">
<path d="M71.8414 143.958C111.33 143.958 143.341 111.947 143.341 72.4585C143.341 32.9701 111.33 0.958496 71.8414 0.958496C32.3531 0.958496 0.341431 32.9701 0.341431 72.4585C0.341431 111.947 32.3531 143.958 71.8414 143.958Z" fill="#F9F9F9"/>
<path d="M45.4584 46.6634L31.173 91.971C30.1868 95.0988 32.3763 98.5768 36.0633 99.7393L116.176 124.999C119.863 126.161 123.651 124.568 124.637 121.44L138.923 76.1326C139.909 73.0048 137.719 69.5267 134.032 68.3642L53.9201 43.1049C50.2331 41.9424 46.4446 43.5356 45.4584 46.6634Z" fill="#C2DDFF" stroke="#0474FA" stroke-width="2"/>
<path d="M18.4455 80.4802L12.3774 126.572C11.8388 130.663 15.3972 134.505 20.3252 135.154L103.607 146.118C108.535 146.767 112.966 143.977 113.505 139.886L119.573 93.7939C120.112 89.7028 116.553 85.8604 111.625 85.2116L28.3438 74.2474C23.4157 73.5986 18.9841 76.3892 18.4455 80.4802Z" fill="#FAFAFA" stroke="#0474FA" stroke-width="2"/>
<path d="M96.0367 136.351C98.7833 136.829 101.398 134.99 101.876 132.244C102.354 129.497 100.516 126.883 97.7689 126.404C95.0222 125.926 92.4079 127.765 91.9296 130.512C91.4512 133.258 93.29 135.873 96.0367 136.351Z" fill="#BCDFFF"/>
<path d="M60.4075 131.299C72.6301 133.427 84.264 125.245 86.3926 113.022C88.5211 100.8 80.3384 89.1657 68.1158 87.0371C55.8932 84.9085 44.2593 93.0913 42.1307 105.314C40.0021 117.536 48.1849 129.17 60.4075 131.299Z" fill="#BCDFFF"/>
<path d="M30.7977 91.6829C33.5443 92.1612 36.1587 90.3224 36.637 87.5757C37.1154 84.8291 35.2765 82.2147 32.5299 81.7364C29.7832 81.2581 27.1689 83.0969 26.6905 85.8435C26.2122 88.5902 28.051 91.2046 30.7977 91.6829Z" fill="#BCDFFF"/>
<path d="M72.8239 104.134L70.6386 103.814C70.6159 102.958 70.5334 102.106 70.3919 101.262L73.1842 101.671C74.5252 101.867 75.7736 100.924 75.9725 99.5634C76.1715 98.2032 75.2457 96.9416 73.9046 96.7455L58.9715 94.5612C57.6304 94.3651 56.3821 95.3086 56.1831 96.6688C55.9842 98.0289 56.91 99.2905 58.2511 99.4866L62.6217 100.126C63.8357 100.303 64.7485 101.695 65.2966 103.033L57.8908 101.949C56.5498 101.753 55.3014 102.697 55.1025 104.057C54.9035 105.417 55.8293 106.679 57.1704 106.875L64.5762 107.958C64.4549 107.94 64.4369 108.063 64.2973 108.169C63.4208 108.722 62.3749 108.927 61.3609 108.746L56.9903 108.106C55.998 107.963 55.0237 108.478 54.5708 109.387C54.0988 110.284 54.181 111.375 54.7815 112.185L63.8491 123.95C64.2467 124.449 64.8279 124.761 65.4587 124.815C66.8023 124.992 68.0376 124.03 68.2177 122.668C68.3015 122.033 68.1415 121.392 67.7707 120.876L62.2366 113.779C65.5417 113.758 68.541 111.79 69.918 108.739L72.1033 109.059C73.4444 109.255 74.6927 108.312 74.8917 106.951C75.0908 105.591 74.1648 104.33 72.8239 104.134Z" fill="#0474FA"/>
<path d="M29.9753 61.8543C30.0835 61.0329 29.5053 60.2794 28.6839 60.1713C27.8626 60.0632 27.1091 60.6414 27.001 61.4627L26.0873 68.4028C25.9792 69.2241 26.5573 69.9776 27.3787 70.0858C28.2 70.1939 28.9535 69.6157 29.0616 68.7944L29.9753 61.8543Z" fill="#0474FA"/>
<path d="M5.98348 79.3727C5.16214 79.2645 4.40866 79.8427 4.30053 80.6641C4.19239 81.4854 4.77056 82.2389 5.5919 82.347L12.532 83.2607C13.3534 83.3688 14.1068 82.7907 14.215 81.9693C14.3231 81.148 13.7449 80.3945 12.9236 80.2864L5.98348 79.3727Z" fill="#0474FA"/>
<path d="M14.5834 65.2426C14.079 64.5853 13.1374 64.4614 12.4802 64.9657C11.823 65.47 11.699 66.4116 12.2033 67.0688L16.4646 72.6223C16.9689 73.2796 17.9106 73.4035 18.5678 72.8992C19.225 72.3949 19.349 71.4533 18.8447 70.796L14.5834 65.2426Z" fill="#0474FA"/>
</svg>
