<svg width="265" height="198" viewBox="0 0 265 198" fill="none" xmlns="http://www.w3.org/2000/svg">
<path d="M76.9565 32.886C76.9565 32.886 106.767 55.67 152.088 13.068C192.336 -24.7657 225.2 34.9275 225.43 63.514C225.728 100.544 185.181 130.173 204.859 154.495C224.535 178.817 165.835 218.981 134.199 184.222C94.8445 140.983 84.1832 176.115 61.7513 176.115C45.6517 176.115 12.5976 135.825 34.9187 105.851C53.7016 80.629 43.4577 72.258 38.497 63.514C31.341 50.9022 48.335 16.6715 76.9565 32.886Z" fill="white"/>
<path d="M196.637 83.235C198.24 83.835 199.99 83.875 201.657 83.489C208.637 81.876 232.638 77.603 228.468 96.335C227.56 100.051 213.503 120.865 233.521 128.462C234.988 129.026 236.539 129.334 238.109 129.372C244.273 129.5 256.487 128.034 261.598 122.794C267.774 116.463 261.027 119.465 261.027 119.465C261.027 119.465 237.551 129.783 229.258 118.836C228.336 117.618 227.748 115.849 227.58 114.326C227.288 111.686 228.452 108.197 229.981 105.159C232.051 101.048 241.987 82.555 220.414 77.168C215.444 75.976 208.226 74.906 198.919 78.852C193.49 81.154 194.692 82.507 196.637 83.235Z" fill="#C2DDFF"/>
<path d="M201.441 76.331L195.193 78.687C193.036 79.5 191.942 81.92 192.749 84.092L193.059 84.926C193.866 87.098 196.269 88.2 198.426 87.387L204.675 85.032C206.832 84.219 207.926 81.799 207.119 79.626L206.809 78.793C206.002 76.62 203.599 75.518 201.441 76.331Z" fill="#0B3970"/>
<path d="M163.085 83.147L142.478 90.915C141.399 91.321 140.852 92.531 141.256 93.617L141.337 93.836C141.741 94.922 142.942 95.473 144.021 95.067L164.628 87.299C165.707 86.892 166.254 85.682 165.85 84.596L165.769 84.377C165.366 83.291 164.164 82.74 163.085 83.147Z" fill="black"/>
<path d="M168.837 98.624L148.229 106.391C147.151 106.798 146.604 108.008 147.008 109.094L147.088 109.313C147.492 110.399 148.694 110.95 149.772 110.543L170.38 102.776C171.458 102.369 172.005 101.159 171.602 100.073L171.521 99.854C171.118 98.768 169.915 98.217 168.837 98.624Z" fill="black"/>
<path d="M187.863 72.585L171.161 78.88C169.004 79.693 167.91 82.114 168.717 84.286L174.42 99.631C175.227 101.803 177.63 102.905 179.787 102.092L196.489 95.797C198.646 94.984 199.74 92.564 198.933 90.391L193.231 75.046C192.424 72.874 190.021 71.772 187.863 72.585Z" fill="#0474FA"/>
<path d="M172.887 76.61L156.184 82.906C154.028 83.719 152.934 86.139 153.741 88.312L160.544 106.619C161.351 108.791 163.754 109.893 165.911 109.08L182.614 102.785C184.77 101.972 185.864 99.552 185.057 97.379L178.254 79.072C177.446 76.899 175.044 75.797 172.887 76.61Z" fill="#0474FA"/>
<path d="M175.501 72.895L175.37 72.944C173.933 73.486 173.203 75.1 173.741 76.548L183.272 102.195C183.81 103.643 185.412 104.378 186.849 103.836L186.98 103.786C188.419 103.244 189.148 101.631 188.61 100.183L179.08 74.536C178.542 73.088 176.939 72.353 175.501 72.895Z" fill="#C2DDFF"/>
<path d="M5.1945 89.292C5.1945 89.292 38.738 79.798 33.8681 101.672C33.0223 105.133 20.8482 122.953 35.3494 131.509C38.4632 133.346 42.0565 134.16 45.665 134.141C52.1348 134.107 62.3914 132.853 66.9991 128.13C73.1743 121.799 66.4281 124.801 66.4281 124.801C66.4281 124.801 47.1635 132.782 37.2526 126.42C33.8685 124.248 32.3345 120.042 33.2535 116.107C33.7232 114.153 34.4384 112.267 35.382 110.495C37.5374 106.429 47.3883 87.891 25.8144 82.504C20.8446 81.312 13.6264 80.242 4.31915 84.188C-4.98806 88.135 5.1945 89.292 5.1945 89.292Z" fill="#C2DDFF"/>
<path d="M71.5096 119.906L65.261 122.262C63.1039 123.075 62.0098 125.495 62.8171 127.668L63.1269 128.501C63.9341 130.674 66.3372 131.776 68.4942 130.962L74.7428 128.607C76.8999 127.794 77.994 125.374 77.1868 123.201L76.877 122.368C76.0697 120.195 73.6666 119.093 71.5096 119.906Z" fill="#0B3970"/>
<path d="M82.0669 109.552L72.8061 113.043C70.6491 113.856 69.5549 116.276 70.3622 118.449L74.8277 130.465C75.635 132.638 78.0381 133.74 80.1951 132.927L89.4558 129.436C91.6129 128.623 92.7068 126.203 91.8998 124.03L87.4343 112.014C86.6269 109.841 84.2239 108.739 82.0669 109.552Z" fill="#0474FA"/>
<path d="M97.4837 100.3L83.6735 105.506C81.5165 106.319 80.4224 108.739 81.2297 110.912L88.0328 129.219C88.8401 131.392 91.2432 132.494 93.3998 131.681L107.21 126.475C109.368 125.662 110.462 123.242 109.655 121.069L102.851 102.762C102.044 100.589 99.6413 99.487 97.4837 100.3Z" fill="#0474FA"/>
<path d="M100.41 96.509L100.279 96.558C98.84 97.1 98.1112 98.714 98.6493 100.162L108.179 125.809C108.717 127.257 110.32 127.992 111.758 127.45L111.889 127.4C113.327 126.858 114.056 125.245 113.518 123.796L103.987 98.15C103.449 96.702 101.848 95.967 100.41 96.509Z" fill="#C2DDFF"/>
<path d="M135.675 80.17C135.177 80.114 134.721 79.867 134.401 79.479C134.082 79.091 133.924 78.594 133.961 78.091L134.992 59.135C135.053 58.0027 136.003 57.1424 137.08 57.2425L138.581 57.3825C139.658 57.4826 140.43 58.5025 140.279 59.627L137.747 78.443C137.69 78.944 137.441 79.403 137.055 79.725C136.669 80.047 136.174 80.206 135.675 80.17Z" fill="#C2DDFF"/>
<path d="M126.777 81.804C126.623 81.85 126.461 81.865 126.3 81.848C126.14 81.83 125.984 81.781 125.843 81.703C125.701 81.626 125.577 81.521 125.476 81.394C125.374 81.268 125.299 81.122 125.253 80.967L121.574 69.175C121.466 68.84 121.496 68.475 121.655 68.162C121.815 67.848 122.091 67.611 122.425 67.503L123.377 67.213C123.541 67.165 123.712 67.152 123.881 67.174C124.05 67.196 124.212 67.253 124.358 67.342C124.504 67.43 124.63 67.548 124.728 67.688C124.826 67.828 124.895 67.987 124.929 68.155L127.656 80.237C127.733 80.561 127.684 80.903 127.521 81.194C127.358 81.484 127.093 81.702 126.777 81.804Z" fill="#C2DDFF"/>
<path d="M121.812 88.604C121.153 89.427 119.826 89.417 118.805 88.582L100.684 73.753C99.6006 72.867 99.2818 71.401 99.9808 70.529L100.956 69.313C101.656 68.44 103.092 68.512 104.116 69.47L121.264 85.516C122.23 86.419 122.471 87.782 121.812 88.604Z" fill="#C2DDFF"/>
<path d="M130.189 126.906C130.656 127.088 131.034 127.445 131.245 127.902C131.456 128.359 131.482 128.881 131.319 129.357L125.515 147.419C125.169 148.498 124.033 149.085 123.016 148.711L121.599 148.19C120.584 147.816 120.096 146.631 120.527 145.584L127.747 128.043C127.93 127.573 128.286 127.193 128.741 126.981C129.196 126.769 129.714 126.742 130.189 126.906Z" fill="#C2DDFF"/>
<path d="M139.206 127.615C139.367 127.61 139.527 127.638 139.678 127.696C139.828 127.754 139.966 127.841 140.083 127.953C140.201 128.064 140.295 128.198 140.36 128.346C140.426 128.494 140.463 128.654 140.467 128.817L141.035 141.164C141.052 141.516 140.932 141.86 140.698 142.122C140.465 142.385 140.137 142.543 139.789 142.562L138.794 142.597C138.623 142.601 138.454 142.57 138.296 142.505C138.138 142.44 137.996 142.343 137.877 142.22C137.759 142.097 137.667 141.951 137.607 141.79C137.549 141.629 137.523 141.458 137.532 141.287L137.959 128.905C137.968 128.571 138.102 128.253 138.332 128.014C138.563 127.775 138.875 127.633 139.206 127.615Z" fill="#C2DDFF"/>
<path d="M145.731 122.317C146.577 121.691 147.857 122.042 148.631 123.112L162.393 142.11C163.214 143.245 163.152 144.744 162.254 145.408L161.003 146.333C160.105 146.997 158.734 146.558 157.987 145.368L145.476 125.444C144.773 124.323 144.885 122.943 145.731 122.317Z" fill="#C2DDFF"/>
</svg>
